# Blender v3.0.1 OBJ File: 'PlankWithHole.blend'
# www.blender.org
mtllib PlankWithHole.mtl
o Cube.002
v 0.300000 0.035000 0.200000
v 0.300000 0.035000 -0.200000
v 0.300000 -0.035000 0.200000
v 0.300000 -0.035000 -0.200000
v -0.300000 0.035000 0.200000
v -0.300000 0.035000 -0.200000
v -0.300000 -0.035000 0.200000
v -0.300000 -0.035000 -0.200000
v -0.106344 -0.035000 0.068655
v -0.106344 0.035000 0.068655
v -0.093212 -0.035000 0.064672
v -0.070503 -0.035000 0.049497
v -0.120000 -0.035000 0.070000
v -0.120000 0.035000 0.070000
v -0.081110 -0.035000 0.058203
v -0.133656 -0.035000 0.068655
v -0.133656 0.035000 0.068655
v -0.146788 -0.035000 0.064672
v -0.146788 0.035000 0.064672
v -0.158890 -0.035000 0.058203
v -0.158890 0.035000 0.058203
v -0.169497 0.035000 0.049497
v -0.169497 -0.035000 0.049497
v -0.190000 -0.035000 -0.000000
v -0.188655 -0.035000 -0.013656
v -0.188655 -0.035000 0.013656
v -0.178203 -0.035000 -0.038890
v -0.184672 -0.035000 -0.026788
v -0.184672 -0.035000 0.026788
v -0.178203 -0.035000 0.038890
v -0.169497 -0.035000 -0.049497
v -0.146788 -0.035000 -0.064672
v -0.158890 -0.035000 -0.058203
v -0.133656 -0.035000 -0.068655
v -0.178203 0.035000 0.038890
v -0.120000 -0.035000 -0.070000
v -0.081110 -0.035000 -0.058203
v -0.093212 -0.035000 -0.064672
v -0.106344 -0.035000 -0.068655
v -0.061797 -0.035000 -0.038890
v -0.061797 -0.035000 0.038890
v -0.050000 -0.035000 0.000000
v -0.051345 -0.035000 -0.013656
v -0.051345 -0.035000 0.013656
v -0.055328 -0.035000 -0.026788
v -0.055328 -0.035000 0.026788
v -0.070503 -0.035000 -0.049497
v -0.184672 0.035000 0.026788
v -0.188655 0.035000 0.013656
v -0.190000 0.035000 0.000000
v -0.188655 0.035000 -0.013656
v -0.178203 0.035000 -0.038890
v -0.184672 0.035000 -0.026788
v -0.169497 0.035000 -0.049497
v -0.146788 0.035000 -0.064672
v -0.158890 0.035000 -0.058203
v -0.133656 0.035000 -0.068655
v -0.120000 0.035000 -0.070000
v -0.081110 0.035000 0.058203
v -0.093212 0.035000 0.064672
v -0.106344 0.035000 -0.068655
v -0.061797 0.035000 -0.038890
v -0.061797 0.035000 0.038890
v -0.050000 0.035000 0.000000
v -0.051345 0.035000 -0.013656
v -0.051345 0.035000 0.013656
v -0.055328 0.035000 -0.026788
v -0.055328 0.035000 0.026788
v -0.070503 0.035000 0.049497
v -0.093212 0.035000 -0.064672
v -0.070503 0.035000 -0.049497
v -0.081110 0.035000 -0.058203
vt 0.625000 0.500000
vt 0.875000 0.500000
vt 0.875000 0.750000
vt 0.625000 0.750000
vt 0.459580 0.936162
vt 0.375000 1.000000
vt 0.375000 0.750000
vt 0.625000 1.000000
vt 0.540420 0.936162
vt 0.542909 0.930690
vt 0.543750 0.925000
vt 0.542909 0.919310
vt 0.540420 0.913838
vt 0.536377 0.908796
vt 0.530936 0.904376
vt 0.524306 0.900749
vt 0.516742 0.898054
vt 0.508535 0.896394
vt 0.500000 0.895833
vt 0.491465 0.896394
vt 0.483258 0.898053
vt 0.475694 0.900749
vt 0.469064 0.904376
vt 0.463623 0.908796
vt 0.459580 0.913838
vt 0.457091 0.919310
vt 0.456250 0.925000
vt 0.457091 0.930690
vt 0.463623 0.941204
vt 0.469064 0.945624
vt 0.475694 0.949251
vt 0.483258 0.951946
vt 0.491465 0.953606
vt 0.500000 0.954167
vt 0.508535 0.953606
vt 0.516742 0.951946
vt 0.524306 0.949251
vt 0.530936 0.945624
vt 0.536377 0.941204
vt 0.375000 0.000000
vt 0.625000 0.000000
vt 0.625000 0.250000
vt 0.375000 0.250000
vt 0.125000 0.500000
vt 0.375000 0.500000
vt 0.125000 0.750000
vt 0.459580 0.313838
vt 0.540420 0.313838
vt 0.536377 0.308796
vt 0.530936 0.304376
vt 0.524306 0.300749
vt 0.516742 0.298054
vt 0.508535 0.296394
vt 0.500000 0.295833
vt 0.491465 0.296394
vt 0.483258 0.298054
vt 0.475694 0.300749
vt 0.469064 0.304376
vt 0.463623 0.308796
vt 0.457091 0.319310
vt 0.456250 0.325000
vt 0.457091 0.330690
vt 0.459580 0.336162
vt 0.463623 0.341204
vt 0.469064 0.345624
vt 0.475694 0.349251
vt 0.483258 0.351947
vt 0.491465 0.353606
vt 0.500000 0.354167
vt 0.508535 0.353606
vt 0.516742 0.351946
vt 0.524306 0.349251
vt 0.530936 0.345624
vt 0.536377 0.341204
vt 0.540420 0.336162
vt 0.542909 0.330690
vt 0.543750 0.325000
vt 0.542909 0.319310
vt 1.000000 0.758750
vt 1.000000 0.741250
vt 0.968750 0.741250
vt 0.968750 0.758750
vt 0.968750 0.741250
vt 0.937500 0.741250
vt 0.937500 0.758750
vt 0.937500 0.758750
vt 0.906250 0.741250
vt 0.906250 0.758750
vt 0.875000 0.741250
vt 0.875000 0.758750
vt 0.906250 0.758750
vt 0.843750 0.741250
vt 0.843750 0.758750
vt 0.875000 0.758750
vt 0.812500 0.741250
vt 0.812500 0.758750
vt 0.843750 0.758750
vt 0.843750 0.741250
vt 0.781250 0.741250
vt 0.781250 0.758750
vt 0.750000 0.741250
vt 0.750000 0.758750
vt 0.781250 0.741250
vt 0.718750 0.741250
vt 0.718750 0.758750
vt 0.750000 0.758750
vt 0.687500 0.741250
vt 0.687500 0.758750
vt 0.656250 0.741250
vt 0.656250 0.758750
vt 0.687500 0.758750
vt 0.625000 0.741250
vt 0.625000 0.758750
vt 0.656250 0.758750
vt 0.593750 0.741250
vt 0.593750 0.758750
vt 0.625000 0.758750
vt 0.562500 0.741250
vt 0.562500 0.758750
vt 0.593750 0.758750
vt 0.531250 0.741250
vt 0.531250 0.758750
vt 0.531250 0.741250
vt 0.500000 0.741250
vt 0.500000 0.758750
vt 0.531250 0.758750
vt 0.500000 0.758750
vt 0.500000 0.741250
vt 0.468750 0.741250
vt 0.468750 0.758750
vt 0.468750 0.758750
vt 0.468750 0.741250
vt 0.437500 0.741250
vt 0.437500 0.758750
vt 0.437500 0.758750
vt 0.406250 0.741250
vt 0.406250 0.758750
vt 0.375000 0.741250
vt 0.375000 0.758750
vt 0.375000 0.758750
vt 0.343750 0.741250
vt 0.343750 0.758750
vt 0.343750 0.741250
vt 0.312500 0.741250
vt 0.312500 0.758750
vt 0.281250 0.741250
vt 0.281250 0.758750
vt 0.281250 0.741250
vt 0.250000 0.741250
vt 0.250000 0.758750
vt 0.281250 0.758750
vt 0.218750 0.741250
vt 0.218750 0.758750
vt 0.250000 0.758750
vt 0.187500 0.741250
vt 0.187500 0.758750
vt 0.218750 0.758750
vt 0.187500 0.741250
vt 0.156250 0.741250
vt 0.156250 0.758750
vt 0.187500 0.758750
vt 0.125000 0.741250
vt 0.125000 0.758750
vt 0.156250 0.758750
vt 0.093750 0.741250
vt 0.093750 0.758750
vt 0.093750 0.758750
vt 0.062500 0.741250
vt 0.062500 0.758750
vt 0.062500 0.758750
vt 0.031250 0.741250
vt 0.031250 0.758750
vt 0.031250 0.741250
vt 0.000000 0.741250
vt 0.000000 0.758750
vn 0.0000 0.0000 1.0000
vn 0.0000 -1.0000 -0.0000
vn -1.0000 0.0000 0.0000
vn 0.0000 0.0000 -1.0000
vn 1.0000 0.0000 0.0000
vn -0.0000 1.0000 0.0000
vn -0.0980 0.0000 0.9952
vn -0.2903 0.0000 0.9569
vn -0.4714 0.0000 0.8819
vn -0.6344 0.0000 0.7730
vn -0.7730 0.0000 0.6344
vn -0.8819 0.0000 0.4714
vn -0.9569 -0.0000 0.2903
vn -0.9952 0.0000 0.0980
vn -0.9952 0.0000 -0.0980
vn -0.9569 0.0000 -0.2903
vn -0.8819 -0.0000 -0.4714
vn -0.7730 0.0000 -0.6344
vn -0.6344 0.0000 -0.7730
vn -0.4714 0.0000 -0.8819
vn -0.2903 0.0000 -0.9569
vn -0.0980 0.0000 -0.9952
vn 0.0980 0.0000 -0.9952
vn 0.2903 0.0000 -0.9569
vn 0.4714 0.0000 -0.8819
vn 0.6344 0.0000 -0.7730
vn 0.7730 0.0000 -0.6344
vn 0.8819 0.0000 -0.4714
vn 0.9569 0.0000 -0.2903
vn 0.9952 -0.0000 -0.0980
vn 0.9952 0.0000 0.0980
vn 0.9569 0.0000 0.2903
vn 0.8819 0.0000 0.4714
vn 0.7730 0.0000 0.6344
vn 0.6344 0.0000 0.7730
vn 0.4714 0.0000 0.8819
vn 0.2903 0.0000 0.9569
vn 0.0980 0.0000 0.9952
usemtl Material.002
s off
f 1/1/1 5/2/1 7/3/1 3/4/1
f 32/5/2 8/6/2 4/7/2 3/4/2 7/8/2 18/9/2 16/10/2 13/11/2 9/12/2 11/13/2 15/14/2 12/15/2 41/16/2 46/17/2 44/18/2 42/19/2 43/20/2 45/21/2 40/22/2 47/23/2 37/24/2 38/25/2 39/26/2 36/27/2 34/28/2
f 18/9/2 7/8/2 8/6/2 32/5/2 33/29/2 31/30/2 27/31/2 28/32/2 25/33/2 24/34/2 26/35/2 29/36/2 30/37/2 23/38/2 20/39/2
f 8/40/3 7/41/3 5/42/3 6/43/3
f 6/44/4 2/45/4 4/7/4 8/46/4
f 2/45/5 1/1/5 3/4/5 4/7/5
f 55/47/6 6/43/6 5/42/6 19/48/6 21/49/6 22/50/6 35/51/6 48/52/6 49/53/6 50/54/6 51/55/6 53/56/6 52/57/6 54/58/6 56/59/6
f 19/48/6 5/42/6 1/1/6 2/45/6 6/43/6 55/47/6 57/60/6 58/61/6 61/62/6 70/63/6 72/64/6 71/65/6 62/66/6 67/67/6 65/68/6 64/69/6 66/70/6 68/71/6 63/72/6 69/73/6 59/74/6 60/75/6 10/76/6 14/77/6 17/78/6
f 58/79/7 36/80/7 39/81/7 61/82/7
f 61/82/8 39/83/8 38/84/8 70/85/8
f 70/86/9 38/84/9 37/87/9 72/88/9
f 47/89/10 71/90/10 72/91/10 37/87/10
f 40/92/11 62/93/11 71/94/11 47/89/11
f 45/95/12 67/96/12 62/97/12 40/98/12
f 43/99/13 65/100/13 67/96/13 45/95/13
f 42/101/14 64/102/14 65/100/14 43/103/14
f 44/104/15 66/105/15 64/106/15 42/101/15
f 46/107/16 68/108/16 66/105/16 44/104/16
f 41/109/17 63/110/17 68/111/17 46/107/17
f 12/112/18 69/113/18 63/114/18 41/109/18
f 15/115/19 59/116/19 69/117/19 12/112/19
f 15/115/20 11/118/20 60/119/20 59/120/20
f 11/118/21 9/121/21 10/122/21 60/119/21
f 9/123/22 13/124/22 14/125/22 10/126/22
f 14/127/23 13/128/23 16/129/23 17/130/23
f 17/131/24 16/132/24 18/133/24 19/134/24
f 19/135/25 18/133/25 20/136/25 21/137/25
f 21/137/26 20/136/26 23/138/26 22/139/26
f 22/140/27 23/138/27 30/141/27 35/142/27
f 30/143/28 29/144/28 48/145/28 35/142/28
f 29/144/29 26/146/29 49/147/29 48/145/29
f 26/148/30 24/149/30 50/150/30 49/151/30
f 24/149/31 25/152/31 51/153/31 50/154/31
f 25/152/32 28/155/32 53/156/32 51/157/32
f 28/158/33 27/159/33 52/160/33 53/161/33
f 27/159/34 31/162/34 54/163/34 52/164/34
f 31/162/35 33/165/35 56/166/35 54/163/35
f 56/167/36 33/165/36 32/168/36 55/169/36
f 55/170/37 32/168/37 34/171/37 57/172/37
f 57/172/38 34/173/38 36/174/38 58/175/38
