# Blender v3.0.1 OBJ File: 'SkewedPlankWithHole.blend'
# www.blender.org
mtllib SkewedPlankWithHole.mtl
o Cube
v 0.500000 0.500000 -0.500000
v 0.500000 -0.500000 -0.500000
v 0.500000 0.500000 0.500000
v 0.500000 -0.500000 0.500000
v -0.500000 0.500000 -0.500000
v -0.500000 -0.500000 -0.500000
v -0.500000 0.500000 0.500000
v -0.500000 -0.500000 0.500000
v -0.177239 -0.500000 0.171637
v -0.177239 0.500000 0.171637
v -0.200000 -0.500000 0.175000
v -0.200000 0.500000 0.175000
v -0.222760 -0.500000 0.171637
v -0.222760 0.500000 0.171637
v -0.316667 0.500000 -0.000000
v -0.314425 0.500000 0.034141
v -0.314425 0.500000 -0.034141
v -0.297005 0.500000 0.097225
v -0.307786 0.500000 0.066970
v -0.244646 -0.500000 0.161679
v -0.307786 0.500000 -0.066970
v -0.297005 0.500000 -0.097225
v -0.282496 0.500000 0.123744
v -0.282496 0.500000 -0.123744
v -0.244646 0.500000 0.161679
v -0.244646 0.500000 -0.161679
v -0.264817 0.500000 0.145507
v -0.264817 0.500000 -0.145507
v -0.222760 0.500000 -0.171637
v -0.200000 0.500000 -0.175000
v -0.135183 0.500000 -0.145507
v -0.155354 0.500000 -0.161679
v -0.177239 0.500000 -0.171637
v -0.102995 0.500000 0.097225
v -0.102995 0.500000 -0.097225
v -0.083333 0.500000 0.000000
v -0.085575 0.500000 0.034141
v -0.085575 0.500000 -0.034141
v -0.092214 0.500000 0.066970
v -0.092214 0.500000 -0.066970
v -0.117504 0.500000 -0.123744
v -0.264817 -0.500000 0.145507
v -0.282496 -0.500000 0.123744
v -0.155354 0.500000 0.161679
v -0.117504 0.500000 0.123744
v -0.297005 -0.500000 0.097225
v -0.135183 0.500000 0.145507
v -0.155354 -0.500000 -0.161679
v -0.117504 -0.500000 -0.123744
v -0.307786 -0.500000 0.066970
v -0.135183 -0.500000 -0.145507
v -0.314425 -0.500000 0.034141
v -0.316667 -0.500000 -0.000000
v -0.314425 -0.500000 -0.034141
v -0.307786 -0.500000 -0.066970
v -0.297005 -0.500000 -0.097225
v -0.282496 -0.500000 -0.123744
v -0.244646 -0.500000 -0.161679
v -0.264817 -0.500000 -0.145507
v -0.222760 -0.500000 -0.171637
v -0.200000 -0.500000 -0.175000
v -0.135183 -0.500000 0.145507
v -0.155354 -0.500000 0.161679
v -0.177239 -0.500000 -0.171637
v -0.102995 -0.500000 0.097225
v -0.102995 -0.500000 -0.097225
v -0.083333 -0.500000 0.000000
v -0.085575 -0.500000 0.034141
v -0.085575 -0.500000 -0.034141
v -0.092214 -0.500000 0.066970
v -0.092214 -0.500000 -0.066970
v -0.117504 -0.500000 0.123744
vt 0.811162 0.665420
vt 0.875000 0.750000
vt 0.625000 0.750000
vt 0.625000 0.500000
vt 0.875000 0.500000
vt 0.811162 0.584580
vt 0.805690 0.582091
vt 0.800000 0.581250
vt 0.794310 0.582091
vt 0.788838 0.584580
vt 0.783796 0.588623
vt 0.779376 0.594064
vt 0.775749 0.600694
vt 0.773054 0.608258
vt 0.771394 0.616465
vt 0.770833 0.625000
vt 0.771394 0.633535
vt 0.773053 0.641742
vt 0.775749 0.649306
vt 0.779376 0.655936
vt 0.783796 0.661377
vt 0.788838 0.665420
vt 0.794310 0.667909
vt 0.800000 0.668750
vt 0.805690 0.667909
vt 0.816204 0.661377
vt 0.820624 0.655936
vt 0.824251 0.649306
vt 0.826946 0.641742
vt 0.828606 0.633535
vt 0.829167 0.625000
vt 0.828606 0.616465
vt 0.826946 0.608258
vt 0.824251 0.600694
vt 0.820624 0.594064
vt 0.816204 0.588623
vt 0.375000 0.750000
vt 0.625000 1.000000
vt 0.375000 1.000000
vt 0.375000 0.000000
vt 0.625000 0.000000
vt 0.625000 0.250000
vt 0.375000 0.250000
vt 0.188838 0.665420
vt 0.125000 0.750000
vt 0.125000 0.500000
vt 0.188838 0.584580
vt 0.183796 0.588623
vt 0.179376 0.594064
vt 0.175749 0.600694
vt 0.173054 0.608258
vt 0.171394 0.616465
vt 0.170833 0.625000
vt 0.171394 0.633535
vt 0.173054 0.641742
vt 0.175749 0.649306
vt 0.179376 0.655936
vt 0.183796 0.661377
vt 0.375000 0.500000
vt 0.194310 0.667909
vt 0.200000 0.668750
vt 0.205690 0.667909
vt 0.211162 0.665420
vt 0.216204 0.661377
vt 0.220624 0.655936
vt 0.224251 0.649306
vt 0.226946 0.641742
vt 0.228606 0.633535
vt 0.229167 0.625000
vt 0.228606 0.616465
vt 0.226946 0.608258
vt 0.224251 0.600694
vt 0.220624 0.594064
vt 0.216204 0.588623
vt 0.211162 0.584580
vt 0.205690 0.582091
vt 0.200000 0.581250
vt 0.194310 0.582091
vt 0.968750 0.741250
vt 0.968750 0.758750
vt 1.000000 0.758750
vt 1.000000 0.741250
vt 0.937500 0.741250
vt 0.937500 0.758750
vt 0.906250 0.741250
vt 0.906250 0.758750
vt 0.875000 0.758750
vt 0.906250 0.758750
vt 0.875000 0.741250
vt 0.843750 0.758750
vt 0.875000 0.758750
vt 0.875000 0.741250
vt 0.843750 0.741250
vt 0.812500 0.758750
vt 0.843750 0.758750
vt 0.843750 0.741250
vt 0.812500 0.741250
vt 0.781250 0.758750
vt 0.812500 0.741250
vt 0.781250 0.741250
vt 0.750000 0.758750
vt 0.750000 0.741250
vt 0.718750 0.758750
vt 0.718750 0.741250
vt 0.687500 0.758750
vt 0.687500 0.741250
vt 0.656250 0.758750
vt 0.656250 0.741250
vt 0.625000 0.758750
vt 0.656250 0.758750
vt 0.625000 0.741250
vt 0.593750 0.758750
vt 0.625000 0.758750
vt 0.625000 0.741250
vt 0.593750 0.741250
vt 0.562500 0.758750
vt 0.593750 0.741250
vt 0.562500 0.741250
vt 0.531250 0.741250
vt 0.531250 0.758750
vt 0.500000 0.741250
vt 0.500000 0.758750
vt 0.531250 0.758750
vt 0.500000 0.741250
vt 0.468750 0.741250
vt 0.468750 0.758750
vt 0.437500 0.741250
vt 0.437500 0.758750
vt 0.406250 0.758750
vt 0.406250 0.741250
vt 0.375000 0.741250
vt 0.375000 0.758750
vt 0.343750 0.741250
vt 0.343750 0.758750
vt 0.312500 0.741250
vt 0.312500 0.758750
vt 0.281250 0.741250
vt 0.281250 0.758750
vt 0.312500 0.758750
vt 0.250000 0.741250
vt 0.250000 0.758750
vt 0.281250 0.741250
vt 0.218750 0.741250
vt 0.218750 0.758750
vt 0.187500 0.741250
vt 0.187500 0.758750
vt 0.156250 0.741250
vt 0.156250 0.758750
vt 0.125000 0.741250
vt 0.125000 0.758750
vt 0.093750 0.741250
vt 0.093750 0.758750
vt 0.125000 0.758750
vt 0.062500 0.741250
vt 0.062500 0.758750
vt 0.093750 0.741250
vt 0.031250 0.741250
vt 0.031250 0.758750
vt 0.062500 0.758750
vt 0.000000 0.741250
vt 0.000000 0.758750
vt 0.031250 0.758750
vt 0.031250 0.741250
vn 0.0000 1.0000 -0.0000
vn 0.0000 0.0000 1.0000
vn -1.0000 0.0000 0.0000
vn 0.0000 -1.0000 0.0000
vn 1.0000 0.0000 0.0000
vn 0.0000 0.0000 -1.0000
vn -0.1462 0.0000 0.9893
vn -0.4142 0.0000 0.9102
vn -0.6255 0.0000 0.7802
vn -0.7762 0.0000 0.6305
vn -0.8773 0.0000 0.4800
vn -0.9420 0.0000 0.3357
vn -0.9802 0.0000 0.1982
vn -0.9979 0.0000 0.0655
vn -0.9979 0.0000 -0.0655
vn -0.9802 0.0000 -0.1982
vn -0.9420 0.0000 -0.3357
vn -0.8773 0.0000 -0.4800
vn -0.7762 0.0000 -0.6305
vn -0.6255 0.0000 -0.7802
vn -0.4142 0.0000 -0.9102
vn -0.1462 0.0000 -0.9893
vn 0.1462 0.0000 -0.9893
vn 0.4142 0.0000 -0.9102
vn 0.6255 0.0000 -0.7802
vn 0.7762 0.0000 -0.6305
vn 0.8773 0.0000 -0.4800
vn 0.9420 0.0000 -0.3357
vn 0.9802 0.0000 -0.1982
vn 0.9979 0.0000 -0.0655
vn 0.9979 0.0000 0.0655
vn 0.9802 0.0000 0.1982
vn 0.9420 0.0000 0.3357
vn 0.8773 0.0000 0.4800
vn 0.7762 0.0000 0.6305
vn 0.6255 0.0000 0.7802
vn 0.4142 0.0000 0.9102
vn 0.1462 0.0000 0.9893
usemtl Material
s off
f 25/1/1 7/2/1 3/3/1 1/4/1 5/5/1 26/6/1 29/7/1 30/8/1 33/9/1 32/10/1 31/11/1 41/12/1 35/13/1 40/14/1 38/15/1 36/16/1 37/17/1 39/18/1 34/19/1 45/20/1 47/21/1 44/22/1 10/23/1 12/24/1 14/25/1
f 26/6/1 5/5/1 7/2/1 25/1/1 27/26/1 23/27/1 18/28/1 19/29/1 16/30/1 15/31/1 17/32/1 21/33/1 22/34/1 24/35/1 28/36/1
f 4/37/2 3/3/2 7/38/2 8/39/2
f 8/40/3 7/41/3 5/42/3 6/43/3
f 20/44/4 8/45/4 6/46/4 58/47/4 59/48/4 57/49/4 56/50/4 55/51/4 54/52/4 53/53/4 52/54/4 50/55/4 46/56/4 43/57/4 42/58/4
f 58/47/4 6/46/4 2/59/4 4/37/4 8/45/4 20/44/4 13/60/4 11/61/4 9/62/4 63/63/4 62/64/4 72/65/4 65/66/4 70/67/4 68/68/4 67/69/4 69/70/4 71/71/4 66/72/4 49/73/4 51/74/4 48/75/4 64/76/4 61/77/4 60/78/4
f 2/59/5 1/4/5 3/3/5 4/37/5
f 6/43/6 5/42/6 1/4/6 2/59/6
f 64/79/7 33/80/7 30/81/7 61/82/7
f 48/83/8 32/84/8 33/80/8 64/79/8
f 51/85/9 31/86/9 32/84/9 48/83/9
f 41/87/10 31/88/10 51/85/10 49/89/10
f 35/90/11 41/91/11 49/92/11 66/93/11
f 40/94/12 35/95/12 66/96/12 71/97/12
f 38/98/13 40/94/13 71/99/13 69/100/13
f 36/101/14 38/98/14 69/100/14 67/102/14
f 37/103/15 36/101/15 67/102/15 68/104/15
f 39/105/16 37/103/16 68/104/16 70/106/16
f 34/107/17 39/105/17 70/106/17 65/108/17
f 45/109/18 34/110/18 65/108/18 72/111/18
f 47/112/19 45/113/19 72/114/19 62/115/19
f 44/116/20 47/112/20 62/117/20 63/118/20
f 9/119/21 10/120/21 44/116/21 63/118/21
f 9/119/22 11/121/22 12/122/22 10/123/22
f 12/122/23 11/124/23 13/125/23 14/126/23
f 14/126/24 13/125/24 20/127/24 25/128/24
f 27/129/25 25/128/25 20/127/25 42/130/25
f 43/131/26 23/132/26 27/129/26 42/130/26
f 46/133/27 18/134/27 23/132/27 43/131/27
f 50/135/28 19/136/28 18/134/28 46/133/28
f 52/137/29 16/138/29 19/139/29 50/135/29
f 53/140/30 15/141/30 16/138/30 52/142/30
f 54/143/31 17/144/31 15/141/31 53/140/31
f 55/145/32 21/146/32 17/144/32 54/143/32
f 56/147/33 22/148/33 21/146/33 55/145/33
f 57/149/34 24/150/34 22/148/34 56/147/34
f 59/151/35 28/152/35 24/153/35 57/149/35
f 58/154/36 26/155/36 28/152/36 59/156/36
f 60/157/37 29/158/37 26/159/37 58/154/37
f 61/160/38 30/161/38 29/162/38 60/163/38
