# Blender v3.0.1 OBJ File: 'PlanksBirdhouse.blend'
# www.blender.org
mtllib PlankFront2.mtl
o Cube.022_Cube.030
v 0.600000 0.050000 0.300000
v 0.600000 0.050000 -0.300000
v 0.600000 -0.050000 0.300000
v 0.600000 -0.050000 -0.300000
v -0.600000 0.050000 0.300000
v -0.600000 0.050000 -0.300000
v -0.600000 -0.050000 0.300000
v -0.600000 -0.050000 -0.300000
v -0.410000 -0.050000 -0.000000
v -0.408078 -0.050000 -0.019509
v -0.408078 -0.050000 0.019509
v -0.380711 -0.050000 -0.070711
v -0.393147 -0.050000 -0.055557
v -0.402388 -0.050000 -0.038268
v -0.402388 -0.050000 0.038268
v -0.393147 -0.050000 0.055557
v -0.380711 -0.050000 0.070711
v -0.365557 -0.050000 -0.083147
v -0.348268 -0.050000 0.092388
v -0.348268 -0.050000 -0.092388
v -0.365557 -0.050000 0.083147
v -0.310000 -0.050000 0.100000
v -0.310000 -0.050000 -0.100000
v -0.329509 -0.050000 -0.098079
v -0.319754 -0.050000 0.099039
v -0.329509 -0.050000 0.098079
v -0.410000 0.050000 0.000000
v -0.408078 0.050000 -0.019509
v -0.408078 0.050000 0.019509
v -0.380711 0.050000 -0.070711
v -0.393147 0.050000 -0.055557
v -0.402388 0.050000 -0.038268
v -0.402388 0.050000 0.038268
v -0.393147 0.050000 0.055557
v -0.380711 0.050000 0.070711
v -0.365557 0.050000 0.083147
v -0.348268 0.050000 -0.092388
v -0.365557 0.050000 -0.083147
v -0.348268 0.050000 0.092388
v -0.310000 0.050000 0.100000
v -0.310000 0.050000 -0.100000
v -0.329509 0.050000 -0.098079
v -0.319754 0.050000 0.099039
v -0.329509 0.050000 0.098079
vt 0.625000 0.500000
vt 0.875000 0.500000
vt 0.875000 0.750000
vt 0.625000 0.750000
vt 0.461505 0.947556
vt 0.375000 1.000000
vt 0.375000 0.750000
vt 0.625000 1.000000
vt 0.538495 0.947556
vt 0.540866 0.943648
vt 0.541266 0.941616
vt 0.541667 0.939583
vt 0.458333 0.939583
vt 0.459134 0.943648
vt 0.465355 0.951158
vt 0.470537 0.954315
vt 0.476851 0.956906
vt 0.484055 0.958831
vt 0.491871 0.960016
vt 0.500000 0.960417
vt 0.508129 0.960016
vt 0.515945 0.958831
vt 0.523149 0.956906
vt 0.529463 0.954315
vt 0.534645 0.951158
vt 0.375000 0.000000
vt 0.625000 0.000000
vt 0.625000 0.250000
vt 0.375000 0.250000
vt 0.125000 0.500000
vt 0.375000 0.500000
vt 0.125000 0.750000
vt 0.461505 0.302444
vt 0.538495 0.302444
vt 0.534645 0.298842
vt 0.529463 0.295685
vt 0.523149 0.293094
vt 0.515945 0.291169
vt 0.508129 0.289984
vt 0.500000 0.289583
vt 0.491871 0.289984
vt 0.484055 0.291169
vt 0.476851 0.293094
vt 0.470537 0.295685
vt 0.465355 0.298842
vt 0.459134 0.306352
vt 0.458333 0.310417
vt 0.541667 0.310417
vt 0.541266 0.308384
vt 0.540866 0.306352
vt 0.484375 0.737500
vt 0.468750 0.737500
vt 0.468750 0.762500
vt 0.484375 0.762500
vt 0.437500 0.737500
vt 0.437500 0.762500
vt 0.406250 0.737500
vt 0.406250 0.762500
vt 0.375000 0.737500
vt 0.375000 0.762500
vt 0.343750 0.737500
vt 0.343750 0.762500
vt 0.312500 0.737500
vt 0.312500 0.762500
vt 0.281250 0.737500
vt 0.281250 0.762500
vt 0.250000 0.737500
vt 0.250000 0.762500
vt 0.218750 0.737500
vt 0.218750 0.762500
vt 0.187500 0.737500
vt 0.187500 0.762500
vt 0.156250 0.737500
vt 0.156250 0.762500
vt 0.125000 0.737500
vt 0.125000 0.762500
vt 0.093750 0.737500
vt 0.093750 0.762500
vt 0.062500 0.737500
vt 0.062500 0.762500
vt 0.031250 0.737500
vt 0.031250 0.762500
vt 0.000000 0.737500
vt 0.000000 0.762500
vt 0.500000 0.737500
vt 0.500000 0.762500
vt 0.493750 0.000000
vt 0.506250 0.000000
vt 0.506250 0.250000
vt 0.493750 0.250000
vn 0.0000 0.0000 1.0000
vn 0.0000 -1.0000 -0.0000
vn -1.0000 0.0000 0.0000
vn 0.0000 0.0000 -1.0000
vn 1.0000 0.0000 0.0000
vn 0.0000 1.0000 0.0000
vn 0.0980 0.0000 -0.9952
vn 0.2903 0.0000 -0.9569
vn 0.4714 0.0000 -0.8819
vn 0.6344 0.0000 -0.7730
vn 0.7730 0.0000 -0.6344
vn 0.8819 0.0000 -0.4714
vn 0.9569 0.0000 -0.2903
vn 0.9952 -0.0000 -0.0980
vn 0.9952 0.0000 0.0980
vn 0.9569 -0.0000 0.2903
vn 0.8819 0.0000 0.4714
vn 0.7730 0.0000 0.6344
vn 0.6344 0.0000 0.7730
vn 0.4714 0.0000 0.8819
vn 0.2903 0.0000 0.9569
vn 0.0980 0.0000 0.9952
usemtl Material.029
s off
f 1/1/1 5/2/1 7/3/1 3/4/1
f 20/5/2 8/6/2 4/7/2 3/4/2 7/8/2 19/9/2 26/10/2 25/11/2 22/12/2 23/13/2 24/14/2
f 19/9/2 7/8/2 8/6/2 20/5/2 18/15/2 12/16/2 13/17/2 14/18/2 10/19/2 9/20/2 11/21/2 15/22/2 16/23/2 17/24/2 21/25/2
f 8/26/3 7/27/3 5/28/3 6/29/3
f 6/30/4 2/31/4 4/7/4 8/32/4
f 2/31/5 1/1/5 3/4/5 4/7/5
f 37/33/6 6/29/6 5/28/6 39/34/6 36/35/6 35/36/6 34/37/6 33/38/6 29/39/6 27/40/6 28/41/6 32/42/6 31/43/6 30/44/6 38/45/6
f 39/34/6 5/28/6 1/1/6 2/31/6 6/29/6 37/33/6 42/46/6 41/47/6 40/48/6 43/49/6 44/50/6
f 25/51/7 26/52/7 44/53/7 43/54/7
f 26/52/8 19/55/8 39/56/8 44/53/8
f 19/55/9 21/57/9 36/58/9 39/56/9
f 21/57/10 17/59/10 35/60/10 36/58/10
f 17/59/11 16/61/11 34/62/11 35/60/11
f 16/61/12 15/63/12 33/64/12 34/62/12
f 15/63/13 11/65/13 29/66/13 33/64/13
f 11/65/14 9/67/14 27/68/14 29/66/14
f 9/67/15 10/69/15 28/70/15 27/68/15
f 10/69/16 14/71/16 32/72/16 28/70/16
f 14/71/17 13/73/17 31/74/17 32/72/17
f 13/73/18 12/75/18 30/76/18 31/74/18
f 12/75/19 18/77/19 38/78/19 30/76/19
f 18/77/20 20/79/20 37/80/20 38/78/20
f 37/80/21 20/79/21 24/81/21 42/82/21
f 42/82/22 24/81/22 23/83/22 41/84/22
f 22/85/7 25/51/7 43/54/7 40/86/7
f 22/87/3 40/88/3 41/89/3 23/90/3
