# Blender v3.0.1 OBJ File: 'PlanksBirdhouse.blend'
# www.blender.org
mtllib PlankRoof1.mtl
o Cube.015_Cube.021
v 0.350000 0.050000 0.400000
v 0.250000 0.030000 0.300000
v 0.350000 0.050000 -0.400000
v 0.250000 0.030000 -0.300000
v 0.350000 -0.050000 0.400000
v 0.350000 -0.050000 -0.400000
v -0.350000 0.050000 0.400000
v -0.250000 0.030000 0.300000
v -0.350000 0.050000 -0.400000
v -0.250000 0.030000 -0.300000
v -0.350000 -0.050000 0.400000
v -0.350000 -0.050000 -0.400000
v 0.350000 0.419353 0.000000
v 0.250000 0.325482 0.000000
v -0.350000 -0.050000 -0.000000
v 0.350000 -0.050000 -0.000000
v -0.350000 0.419353 0.000000
v -0.250000 0.325482 0.000000
v 0.350000 0.134092 -0.400000
v 0.250000 0.097274 -0.300000
v -0.350000 0.134092 -0.400000
v -0.250000 0.097274 -0.300000
v 0.350000 0.503445 0.000000
v 0.250000 0.392756 0.000000
v -0.350000 0.503445 0.000000
v -0.250000 0.392756 0.000000
v -0.350000 0.134092 0.400000
v -0.250000 0.097274 0.300000
v 0.350000 0.134092 0.400000
v 0.250000 0.097274 0.300000
v -0.400000 0.419353 0.000000
v -0.400000 0.050000 -0.400000
v -0.400000 0.050000 0.400000
v -0.400000 0.503445 0.000000
v -0.400000 0.134092 -0.400000
v -0.400000 0.134092 0.400000
v 0.400000 0.419353 0.000000
v 0.400000 0.050000 -0.400000
v 0.400000 0.050000 0.400000
v 0.400000 0.503445 0.000000
v 0.400000 0.134092 -0.400000
v 0.400000 0.134092 0.400000
v 0.250000 -0.050000 0.300000
v -0.250000 -0.050000 -0.000000
v -0.250000 -0.050000 0.300000
v 0.250000 -0.050000 -0.000000
v -0.250000 -0.050000 -0.000000
v 0.250000 -0.050000 -0.300000
v 0.250000 -0.050000 -0.000000
v -0.250000 -0.050000 -0.300000
vt 0.625000 0.500000
vt 0.875000 0.500000
vt 0.875000 0.750000
vt 0.625000 0.750000
vt 0.500000 0.000000
vt 0.625000 0.000000
vt 0.625000 0.250000
vt 0.500000 0.250000
vt 0.125000 0.500000
vt 0.375000 0.500000
vt 0.375000 0.750000
vt 0.125000 0.750000
vt 0.500000 0.500000
vt 0.500000 0.750000
vt 0.375000 0.500000
vt 0.500000 0.500000
vt 0.500000 0.500000
vt 0.375000 0.500000
vt 0.625000 0.250000
vt 0.500000 0.250000
vt 0.375000 0.000000
vt 0.375000 0.250000
vt 0.125000 0.500000
vt 0.625000 0.500000
vt 0.875000 0.500000
vt 0.625000 0.250000
vt 0.500000 0.250000
vt 0.500000 0.250000
vt 0.625000 0.250000
vt 0.500000 0.500000
vt 0.625000 0.500000
vt 0.500000 0.785714
vt 0.625000 1.000000
vt 0.500000 1.000000
vt 0.500000 0.964286
vt 0.593750 0.964286
vt 0.593750 0.785714
vt 0.375000 1.000000
vt 0.500000 0.785714
vt 0.406250 0.785714
vt 0.406250 0.964286
vt 0.500000 0.964286
vt 0.375000 0.250000
vt 0.375000 0.250000
vt 0.375000 0.250000
vt 0.875000 0.500000
vt 0.875000 0.500000
vt 0.125000 0.500000
vt 0.125000 0.500000
vt 0.625000 0.500000
vt 0.375000 0.500000
vt 0.875000 0.750000
vt 0.875000 0.500000
vt 0.625000 0.500000
vt 0.625000 0.750000
vt 0.500000 0.250000
vt 0.625000 0.250000
vt 0.625000 0.000000
vt 0.500000 0.000000
vt 0.500000 0.000000
vt 0.375000 0.750000
vt 0.375000 0.500000
vt 0.125000 0.500000
vt 0.125000 0.750000
vt 0.500000 0.500000
vt 0.500000 0.750000
vt 0.500000 0.750000
vt 0.625000 0.500000
vt 0.500000 0.500000
vt 0.375000 0.250000
vt 0.375000 0.250000
vt 0.500000 0.250000
vt 0.375000 0.000000
vt 0.625000 0.250000
vt 0.375000 0.500000
vt 0.125000 0.500000
vt 0.875000 0.500000
vn 0.0000 0.0000 1.0000
vn -1.0000 0.0000 0.0000
vn 0.0000 0.0000 -1.0000
vn 1.0000 0.0000 0.0000
vn 0.0000 0.7347 -0.6784
vn 0.0000 -0.7347 -0.6784
vn 0.0000 0.7347 0.6784
vn 0.0000 -1.0000 -0.0000
vn 0.0000 -0.7347 0.6784
vn 0.0000 -0.7125 -0.7017
vn 0.0000 -0.7125 0.7017
usemtl Material.021
s off
f 1/1/1 7/2/1 11/3/1 5/4/1
f 15/5/2 11/6/2 7/7/2 17/8/2
f 9/9/3 3/10/3 6/11/3 12/12/3
f 13/13/4 1/1/4 5/4/4 16/14/4
f 19/15/5 23/16/5 40/17/5 41/18/5
f 17/8/6 7/7/6 33/19/6 31/20/6
f 3/10/4 13/13/4 16/14/4 6/11/4
f 12/21/2 15/5/2 17/8/2 9/22/2
f 3/10/3 9/9/3 21/23/3 19/15/3
f 7/2/1 1/1/1 29/24/1 27/25/1
f 27/26/7 25/27/7 34/28/7 36/29/7
f 1/1/6 13/13/6 37/30/6 39/31/6
f 46/32/8 16/14/8 5/4/8 11/33/8 15/34/8 44/35/8 45/36/8 43/37/8
f 15/34/8 12/38/8 6/11/8 16/14/8 46/32/8 49/39/8 48/40/8 50/41/8 47/42/8 44/35/8
f 25/27/7 27/26/7 29/24/7 23/16/7
f 21/43/5 25/27/5 23/16/5 19/15/5
f 32/44/2 31/20/2 34/28/2 35/45/2
f 31/20/2 33/19/2 36/29/2 34/28/2
f 25/27/5 21/43/5 35/45/5 34/28/5
f 7/2/1 27/25/1 36/46/1 33/47/1
f 21/23/3 9/9/3 32/48/3 35/49/3
f 9/22/9 17/8/9 31/20/9 32/44/9
f 39/31/4 37/30/4 40/17/4 42/50/4
f 37/30/4 38/51/4 41/18/4 40/17/4
f 3/10/3 19/15/3 41/18/3 38/51/3
f 13/13/9 3/10/9 38/51/9 37/30/9
f 23/16/7 29/24/7 42/50/7 40/17/7
f 29/24/1 1/1/1 39/31/1 42/50/1
f 45/52/3 8/53/3 2/54/3 43/55/3
f 18/56/4 8/57/4 45/58/4 44/59/4 47/60/4
f 48/61/1 4/62/1 10/63/1 50/64/1
f 2/54/2 14/65/2 49/66/2 46/67/2 43/55/2
f 2/54/2 30/68/2 24/69/2 14/65/2
f 18/56/4 10/70/4 22/71/4 26/72/4
f 49/66/2 14/65/2 4/62/2 48/61/2
f 10/70/4 18/56/4 47/60/4 50/73/4
f 26/72/10 24/69/10 30/68/10 28/74/10
f 26/72/11 22/71/11 20/75/11 24/69/11
f 4/62/1 20/75/1 22/76/1 10/63/1
f 8/53/3 28/77/3 30/68/3 2/54/3
f 28/74/4 8/57/4 18/56/4 26/72/4
f 4/62/2 14/65/2 24/69/2 20/75/2
