# Blender v3.0.1 OBJ File: ''
# www.blender.org
mtllib SkewedPlankWithHole.mtl
o Cube
v 1.000000 1.000000 -1.000000
v 1.000000 -1.000000 -1.000000
v 1.000000 1.000000 1.000000
v 1.000000 -1.000000 1.000000
v -1.000000 1.000000 -1.000000
v -1.000000 -1.000000 -1.000000
v -1.000000 1.000000 1.000000
v -1.000000 -1.000000 1.000000
v 0.478854 -0.343275 1.000000
v 0.478854 -0.343275 -1.000000
v 0.433333 -0.350000 1.000000
v 0.433333 -0.350000 -1.000000
v 0.387812 -0.343275 1.000000
v 0.387812 -0.343275 -1.000000
v 0.200000 0.000000 1.000000
v 0.204483 -0.068282 1.000000
v 0.204483 0.068282 1.000000
v 0.239324 -0.194450 1.000000
v 0.239324 0.194450 1.000000
v 0.344040 -0.323358 1.000000
v 0.217761 -0.133939 1.000000
v 0.344040 -0.323358 -1.000000
v 0.217761 0.133939 1.000000
v 0.303700 -0.291014 1.000000
v 0.303700 0.291014 1.000000
v 0.387812 0.343275 1.000000
v 0.344040 0.323358 1.000000
v 0.268342 -0.247487 1.000000
v 0.268342 0.247487 1.000000
v 0.478854 0.343275 1.000000
v 0.562966 -0.291014 1.000000
v 0.562966 0.291014 1.000000
v 0.522626 -0.323358 1.000000
v 0.522626 0.323358 1.000000
v 0.627343 -0.194450 1.000000
v 0.627343 0.194450 1.000000
v 0.666667 -0.000000 1.000000
v 0.662183 -0.068282 1.000000
v 0.662183 0.068282 1.000000
v 0.648905 -0.133939 1.000000
v 0.648905 0.133939 1.000000
v 0.303700 -0.291014 -1.000000
v 0.598325 -0.247487 1.000000
v 0.598325 0.247487 1.000000
v 0.433333 0.350000 1.000000
v 0.268342 -0.247487 -1.000000
v 0.239324 -0.194450 -1.000000
v 0.217761 -0.133939 -1.000000
v 0.204483 -0.068282 -1.000000
v 0.200000 0.000000 -1.000000
v 0.204483 0.068282 -1.000000
v 0.239324 0.194450 -1.000000
v 0.217761 0.133939 -1.000000
v 0.303700 0.291014 -1.000000
v 0.387812 0.343275 -1.000000
v 0.344040 0.323358 -1.000000
v 0.268342 0.247487 -1.000000
v 0.478854 0.343275 -1.000000
v 0.562966 -0.291014 -1.000000
v 0.562966 0.291014 -1.000000
v 0.522626 -0.323358 -1.000000
v 0.522626 0.323358 -1.000000
v 0.627343 -0.194450 -1.000000
v 0.627343 0.194450 -1.000000
v 0.666667 -0.000000 -1.000000
v 0.662183 -0.068282 -1.000000
v 0.662183 0.068282 -1.000000
v 0.648905 -0.133939 -1.000000
v 0.648905 0.133939 -1.000000
v 0.598325 -0.247487 -1.000000
v 0.598325 0.247487 -1.000000
v 0.433333 0.350000 -1.000000
vt 0.625000 0.500000
vt 0.875000 0.500000
vt 0.875000 0.750000
vt 0.625000 0.750000
vt 0.459580 0.809672
vt 0.375000 0.750000
vt 0.540420 0.809672
vt 0.536377 0.804629
vt 0.530936 0.800209
vt 0.524306 0.796582
vt 0.516742 0.793887
vt 0.508535 0.792227
vt 0.500000 0.791667
vt 0.491465 0.792227
vt 0.483258 0.793887
vt 0.475694 0.796582
vt 0.469064 0.800209
vt 0.463623 0.804629
vt 0.625000 1.000000
vt 0.375000 1.000000
vt 0.457091 0.815143
vt 0.456250 0.820833
vt 0.457091 0.826523
vt 0.459580 0.831995
vt 0.463623 0.837038
vt 0.469064 0.841457
vt 0.475694 0.845084
vt 0.483258 0.847780
vt 0.491465 0.849440
vt 0.500000 0.850000
vt 0.508535 0.849440
vt 0.516742 0.847780
vt 0.524306 0.845084
vt 0.530936 0.841457
vt 0.536377 0.837038
vt 0.540420 0.831995
vt 0.542909 0.826523
vt 0.543750 0.820833
vt 0.542909 0.815143
vt 0.375000 0.000000
vt 0.625000 0.000000
vt 0.625000 0.250000
vt 0.375000 0.250000
vt 0.125000 0.500000
vt 0.375000 0.500000
vt 0.125000 0.750000
vt 0.459580 0.440328
vt 0.540420 0.440328
vt 0.542909 0.434857
vt 0.543750 0.429167
vt 0.542909 0.423477
vt 0.540420 0.418005
vt 0.536377 0.412963
vt 0.530936 0.408543
vt 0.524306 0.404915
vt 0.516742 0.402220
vt 0.508535 0.400560
vt 0.500000 0.400000
vt 0.491465 0.400560
vt 0.483258 0.402220
vt 0.475694 0.404915
vt 0.469064 0.408543
vt 0.463623 0.412963
vt 0.459580 0.418005
vt 0.457091 0.423477
vt 0.456250 0.429167
vt 0.457091 0.434857
vt 0.463623 0.445371
vt 0.469064 0.449791
vt 0.475694 0.453418
vt 0.483258 0.456113
vt 0.491465 0.457773
vt 0.500000 0.458333
vt 0.508535 0.457773
vt 0.516742 0.456113
vt 0.524306 0.453418
vt 0.530936 0.449791
vt 0.536377 0.445371
vt 0.968750 0.758750
vt 1.000000 0.758750
vt 1.000000 0.741250
vt 0.968750 0.741250
vt 0.937500 0.758750
vt 0.968750 0.741250
vt 0.937500 0.741250
vt 0.906250 0.758750
vt 0.906250 0.741250
vt 0.906250 0.758750
vt 0.875000 0.741250
vt 0.875000 0.758750
vt 0.875000 0.758750
vt 0.843750 0.741250
vt 0.843750 0.758750
vt 0.843750 0.758750
vt 0.812500 0.741250
vt 0.812500 0.758750
vt 0.781250 0.741250
vt 0.781250 0.758750
vt 0.781250 0.741250
vt 0.750000 0.741250
vt 0.750000 0.758750
vt 0.750000 0.758750
vt 0.718750 0.741250
vt 0.718750 0.758750
vt 0.687500 0.741250
vt 0.687500 0.758750
vt 0.687500 0.758750
vt 0.656250 0.741250
vt 0.656250 0.758750
vt 0.625000 0.741250
vt 0.625000 0.758750
vt 0.625000 0.758750
vt 0.593750 0.741250
vt 0.593750 0.758750
vt 0.562500 0.741250
vt 0.562500 0.758750
vt 0.531250 0.741250
vt 0.531250 0.758750
vt 0.500000 0.741250
vt 0.500000 0.758750
vt 0.531250 0.758750
vt 0.468750 0.741250
vt 0.468750 0.758750
vt 0.500000 0.758750
vt 0.500000 0.741250
vt 0.437500 0.741250
vt 0.437500 0.758750
vt 0.406250 0.741250
vt 0.406250 0.758750
vt 0.437500 0.758750
vt 0.437500 0.741250
vt 0.375000 0.758750
vt 0.406250 0.758750
vt 0.375000 0.741250
vt 0.343750 0.758750
vt 0.343750 0.741250
vt 0.312500 0.758750
vt 0.312500 0.741250
vt 0.281250 0.758750
vt 0.281250 0.741250
vt 0.250000 0.758750
vt 0.281250 0.741250
vt 0.250000 0.741250
vt 0.218750 0.758750
vt 0.250000 0.758750
vt 0.218750 0.741250
vt 0.187500 0.758750
vt 0.218750 0.758750
vt 0.187500 0.741250
vt 0.156250 0.758750
vt 0.187500 0.758750
vt 0.187500 0.741250
vt 0.156250 0.741250
vt 0.125000 0.758750
vt 0.125000 0.741250
vt 0.093750 0.758750
vt 0.093750 0.741250
vt 0.062500 0.758750
vt 0.093750 0.758750
vt 0.062500 0.741250
vt 0.031250 0.758750
vt 0.062500 0.758750
vt 0.062500 0.741250
vt 0.031250 0.741250
vt 0.000000 0.758750
vt 0.031250 0.758750
vt 0.031250 0.741250
vt 0.000000 0.741250
vn 0.0000 1.0000 0.0000
vn -0.0000 0.0000 1.0000
vn -1.0000 0.0000 0.0000
vn 0.0000 -1.0000 0.0000
vn 1.0000 0.0000 0.0000
vn 0.0000 0.0000 -1.0000
vn -0.1462 -0.9893 0.0000
vn -0.4142 -0.9102 0.0000
vn -0.6255 -0.7802 0.0000
vn -0.7762 -0.6305 0.0000
vn -0.8773 -0.4800 0.0000
vn -0.9420 -0.3357 0.0000
vn -0.9802 -0.1982 0.0000
vn -0.9979 -0.0655 0.0000
vn -0.9979 0.0655 0.0000
vn -0.9802 0.1982 0.0000
vn -0.9420 0.3357 0.0000
vn -0.8773 0.4800 0.0000
vn -0.7762 0.6305 0.0000
vn -0.6255 0.7802 0.0000
vn -0.4142 0.9102 0.0000
vn -0.1462 0.9893 0.0000
vn 0.1462 0.9893 0.0000
vn 0.4142 0.9102 0.0000
vn 0.6255 0.7802 0.0000
vn 0.7762 0.6305 0.0000
vn 0.8773 0.4800 0.0000
vn 0.9420 0.3357 0.0000
vn 0.9802 0.1982 0.0000
vn 0.9979 0.0655 0.0000
vn 0.9979 -0.0655 0.0000
vn 0.9802 -0.1982 0.0000
vn 0.9420 -0.3357 0.0000
vn 0.8773 -0.4800 0.0000
vn 0.7762 -0.6305 0.0000
vn 0.6255 -0.7802 0.0000
vn 0.4142 -0.9102 0.0000
vn 0.1462 -0.9893 0.0000
usemtl Material
s off
f 1/1/1 5/2/1 7/3/1 3/4/1
f 33/5/2 4/6/2 3/4/2 34/7/2 32/8/2 44/9/2 36/10/2 41/11/2 39/12/2 37/13/2 38/14/2 40/15/2 35/16/2 43/17/2 31/18/2
f 34/7/2 3/4/2 7/19/2 8/20/2 4/6/2 33/5/2 9/21/2 11/22/2 13/23/2 20/24/2 24/25/2 28/26/2 18/27/2 21/28/2 16/29/2 15/30/2 17/31/2 23/32/2 19/33/2 29/34/2 25/35/2 27/36/2 26/37/2 45/38/2 30/39/2
f 8/40/3 7/41/3 5/42/3 6/43/3
f 6/44/4 2/45/4 4/6/4 8/46/4
f 2/45/5 1/1/5 3/4/5 4/6/5
f 61/47/6 2/45/6 6/43/6 5/42/6 1/1/6 62/48/6 58/49/6 72/50/6 55/51/6 56/52/6 54/53/6 57/54/6 52/55/6 53/56/6 51/57/6 50/58/6 49/59/6 48/60/6 47/61/6 46/62/6 42/63/6 22/64/6 14/65/6 12/66/6 10/67/6
f 62/48/6 1/1/6 2/45/6 61/47/6 59/68/6 70/69/6 63/70/6 68/71/6 66/72/6 65/73/6 67/74/6 69/75/6 64/76/6 71/77/6 60/78/6
f 30/79/7 45/80/7 72/81/7 58/82/7
f 34/83/8 30/79/8 58/84/8 62/85/8
f 32/86/9 34/83/9 62/85/9 60/87/9
f 32/88/10 60/87/10 71/89/10 44/90/10
f 44/91/11 71/89/11 64/92/11 36/93/11
f 36/94/12 64/92/12 69/95/12 41/96/12
f 41/96/13 69/95/13 67/97/13 39/98/13
f 39/98/14 67/99/14 65/100/14 37/101/14
f 37/102/15 65/100/15 66/103/15 38/104/15
f 38/104/16 66/103/16 68/105/16 40/106/16
f 40/107/17 68/105/17 63/108/17 35/109/17
f 35/109/18 63/108/18 70/110/18 43/111/18
f 43/112/19 70/110/19 59/113/19 31/114/19
f 61/115/20 33/116/20 31/114/20 59/113/20
f 33/116/21 61/115/21 10/117/21 9/118/21
f 12/119/22 11/120/22 9/121/22 10/117/22
f 14/122/23 13/123/23 11/124/23 12/125/23
f 22/126/24 20/127/24 13/123/24 14/122/24
f 42/128/25 24/129/25 20/130/25 22/131/25
f 28/132/26 24/133/26 42/128/26 46/134/26
f 18/135/27 28/132/27 46/134/27 47/136/27
f 21/137/28 18/135/28 47/136/28 48/138/28
f 16/139/29 21/137/29 48/138/29 49/140/29
f 15/141/30 16/139/30 49/142/30 50/143/30
f 17/144/31 15/145/31 50/143/31 51/146/31
f 23/147/32 17/148/32 51/146/32 53/149/32
f 19/150/33 23/151/33 53/152/33 52/153/33
f 29/154/34 19/150/34 52/153/34 57/155/34
f 25/156/35 29/154/35 57/155/35 54/157/35
f 27/158/36 25/159/36 54/157/36 56/160/36
f 26/161/37 27/162/37 56/163/37 55/164/37
f 45/165/38 26/166/38 55/167/38 72/168/38
